<mxfile host="65bd71144e">
    <diagram id="B8__QAVp9_BSupvG6zFA" name="Page-1">
        <mxGraphModel dx="1151" dy="746" grid="1" gridSize="10" guides="1" tooltips="1" connect="1" arrows="1" fold="1" page="1" pageScale="1" pageWidth="850" pageHeight="1100" math="0" shadow="0">
            <root>
                <mxCell id="0"/>
                <mxCell id="1" parent="0"/>
                <mxCell id="5" style="edgeStyle=orthogonalEdgeStyle;html=1;endArrow=ERoneToMany;endFill=0;startArrow=ERmandOne;startFill=0;strokeWidth=0.8;entryX=0;entryY=0.5;entryDx=0;entryDy=0;exitX=1;exitY=0.5;exitDx=0;exitDy=0;" parent="1" source="4" target="6" edge="1">
                    <mxGeometry relative="1" as="geometry">
                        <mxPoint x="325" y="440" as="targetPoint"/>
                    </mxGeometry>
                </mxCell>
                <mxCell id="4" value="&lt;span style=&quot;color: rgb(0, 0, 0);&quot;&gt;&lt;font style=&quot;font-size: 10px;&quot;&gt;privileges&lt;/font&gt;&lt;/span&gt;" style="rounded=1;whiteSpace=wrap;html=1;fillColor=#dae8fc;strokeColor=#6c8ebf;" parent="1" vertex="1">
                    <mxGeometry x="175" y="310" width="90" height="40" as="geometry"/>
                </mxCell>
                <mxCell id="6" value="&lt;span style=&quot;color: rgb(0, 0, 0);&quot;&gt;&lt;font style=&quot;font-size: 10px;&quot;&gt;users_privileges&lt;/font&gt;&lt;/span&gt;" style="rounded=1;whiteSpace=wrap;html=1;fillColor=#d5e8d4;strokeColor=#82b366;" parent="1" vertex="1">
                    <mxGeometry x="335" y="360" width="90" height="40" as="geometry"/>
                </mxCell>
                <mxCell id="7" value="&lt;span style=&quot;color: rgb(0, 0, 0);&quot;&gt;&lt;font style=&quot;font-size: 10px;&quot;&gt;users&lt;/font&gt;&lt;/span&gt;" style="rounded=1;whiteSpace=wrap;html=1;fillColor=#dae8fc;strokeColor=#6c8ebf;" parent="1" vertex="1">
                    <mxGeometry x="335" y="450" width="90" height="40" as="geometry"/>
                </mxCell>
                <mxCell id="9" style="edgeStyle=orthogonalEdgeStyle;html=1;endArrow=ERmandOne;endFill=0;startArrow=ERoneToMany;startFill=0;strokeWidth=0.8;entryX=0.5;entryY=0;entryDx=0;entryDy=0;exitX=0.5;exitY=1;exitDx=0;exitDy=0;" parent="1" source="6" target="7" edge="1">
                    <mxGeometry relative="1" as="geometry">
                        <mxPoint x="370" y="400" as="targetPoint"/>
                        <mxPoint x="475" y="360" as="sourcePoint"/>
                    </mxGeometry>
                </mxCell>
                <mxCell id="10" value="&lt;span style=&quot;color: rgb(0, 0, 0);&quot;&gt;&lt;font style=&quot;font-size: 10px;&quot;&gt;subscriptions&lt;/font&gt;&lt;/span&gt;" style="rounded=1;whiteSpace=wrap;html=1;fillColor=#dae8fc;strokeColor=#6c8ebf;" parent="1" vertex="1">
                    <mxGeometry x="600" y="280" width="90" height="40" as="geometry"/>
                </mxCell>
                <mxCell id="11" value="&lt;span style=&quot;color: rgb(0, 0, 0);&quot;&gt;&lt;font style=&quot;font-size: 10px;&quot;&gt;users_subscriptions&lt;/font&gt;&lt;/span&gt;" style="rounded=1;whiteSpace=wrap;html=1;fillColor=#d5e8d4;strokeColor=#82b366;" parent="1" vertex="1">
                    <mxGeometry x="455" y="380" width="100" height="40" as="geometry"/>
                </mxCell>
                <mxCell id="13" style="edgeStyle=orthogonalEdgeStyle;html=1;endArrow=ERmandOne;endFill=0;startArrow=ERzeroToMany;startFill=0;strokeWidth=0.8;entryX=0;entryY=0.5;entryDx=0;entryDy=0;exitX=0.5;exitY=0;exitDx=0;exitDy=0;" parent="1" source="11" target="10" edge="1">
                    <mxGeometry relative="1" as="geometry">
                        <mxPoint x="225" y="480" as="targetPoint"/>
                        <mxPoint x="195" y="470" as="sourcePoint"/>
                    </mxGeometry>
                </mxCell>
                <mxCell id="14" value="&lt;span style=&quot;color: rgb(0, 0, 0);&quot;&gt;&lt;font style=&quot;font-size: 10px;&quot;&gt;users&lt;/font&gt;&lt;/span&gt;" style="rounded=1;whiteSpace=wrap;html=1;fillColor=#dae8fc;strokeColor=#6c8ebf;" parent="1" vertex="1">
                    <mxGeometry x="140" y="120" width="90" height="40" as="geometry"/>
                </mxCell>
                <mxCell id="16" style="edgeStyle=orthogonalEdgeStyle;html=1;endArrow=ERzeroToMany;endFill=0;startArrow=ERmandOne;startFill=0;strokeWidth=0.8;entryX=0.5;entryY=1;entryDx=0;entryDy=0;exitX=1;exitY=0.5;exitDx=0;exitDy=0;" parent="1" source="7" target="11" edge="1">
                    <mxGeometry relative="1" as="geometry">
                        <mxPoint x="195" y="250" as="targetPoint"/>
                        <mxPoint x="300" y="210" as="sourcePoint"/>
                    </mxGeometry>
                </mxCell>
                <mxCell id="27" value="&lt;span style=&quot;color: rgb(0, 0, 0);&quot;&gt;&lt;font style=&quot;font-size: 10px;&quot;&gt;profiles&lt;/font&gt;&lt;/span&gt;" style="rounded=1;whiteSpace=wrap;html=1;fillColor=#dae8fc;strokeColor=#6c8ebf;" parent="1" vertex="1">
                    <mxGeometry x="215" y="580" width="90" height="40" as="geometry"/>
                </mxCell>
                <mxCell id="28" value="&lt;span style=&quot;color: rgb(0, 0, 0);&quot;&gt;&lt;font style=&quot;font-size: 10px;&quot;&gt;reviews&lt;/font&gt;&lt;/span&gt;" style="rounded=1;whiteSpace=wrap;html=1;fillColor=#d5e8d4;strokeColor=#82b366;" parent="1" vertex="1">
                    <mxGeometry x="215" y="710" width="90" height="40" as="geometry"/>
                </mxCell>
                <mxCell id="30" value="&lt;span style=&quot;color: rgb(0, 0, 0);&quot;&gt;&lt;font style=&quot;font-size: 10px;&quot;&gt;watch_lists&lt;/font&gt;&lt;/span&gt;" style="rounded=1;whiteSpace=wrap;html=1;fillColor=#dae8fc;strokeColor=#6c8ebf;" parent="1" vertex="1">
                    <mxGeometry x="55" y="710" width="90" height="40" as="geometry"/>
                </mxCell>
                <mxCell id="31" value="&lt;span style=&quot;color: rgb(0, 0, 0);&quot;&gt;&lt;font style=&quot;font-size: 10px;&quot;&gt;medias&lt;/font&gt;&lt;/span&gt;" style="rounded=1;whiteSpace=wrap;html=1;fillColor=#dae8fc;strokeColor=#6c8ebf;" parent="1" vertex="1">
                    <mxGeometry x="395" y="710" width="90" height="40" as="geometry"/>
                </mxCell>
                <mxCell id="32" value="&lt;span style=&quot;color: rgb(0, 0, 0);&quot;&gt;&lt;font style=&quot;font-size: 10px;&quot;&gt;episodes&lt;/font&gt;&lt;/span&gt;" style="rounded=1;whiteSpace=wrap;html=1;fillColor=#dae8fc;strokeColor=#6c8ebf;" parent="1" vertex="1">
                    <mxGeometry x="575" y="710" width="90" height="40" as="geometry"/>
                </mxCell>
                <mxCell id="33" value="&lt;span style=&quot;color: rgb(0, 0, 0);&quot;&gt;&lt;font style=&quot;font-size: 10px;&quot;&gt;genres&lt;/font&gt;&lt;/span&gt;" style="rounded=1;whiteSpace=wrap;html=1;fillColor=#dae8fc;strokeColor=#6c8ebf;" parent="1" vertex="1">
                    <mxGeometry x="600" y="530" width="90" height="40" as="geometry"/>
                </mxCell>
                <mxCell id="34" value="&lt;span style=&quot;color: rgb(0, 0, 0);&quot;&gt;&lt;font style=&quot;font-size: 10px;&quot;&gt;roles&lt;/font&gt;&lt;/span&gt;" style="rounded=1;whiteSpace=wrap;html=1;fillColor=#dae8fc;strokeColor=#6c8ebf;" parent="1" vertex="1">
                    <mxGeometry x="595" y="810" width="90" height="40" as="geometry"/>
                </mxCell>
                <mxCell id="35" value="&lt;span style=&quot;color: rgb(0, 0, 0);&quot;&gt;&lt;font style=&quot;font-size: 10px;&quot;&gt;persons&lt;/font&gt;&lt;/span&gt;" style="rounded=1;whiteSpace=wrap;html=1;fillColor=#dae8fc;strokeColor=#6c8ebf;" parent="1" vertex="1">
                    <mxGeometry x="475" y="980" width="90" height="40" as="geometry"/>
                </mxCell>
                <mxCell id="38" style="edgeStyle=orthogonalEdgeStyle;html=1;endArrow=ERmandOne;endFill=0;startArrow=ERoneToMany;startFill=0;strokeWidth=0.8;entryX=0.5;entryY=1;entryDx=0;entryDy=0;exitX=0.5;exitY=0;exitDx=0;exitDy=0;dashed=1;dashPattern=8 8;" parent="1" source="27" target="7" edge="1">
                    <mxGeometry relative="1" as="geometry">
                        <mxPoint x="337.5" y="250" as="targetPoint"/>
                        <mxPoint x="442.5" y="210" as="sourcePoint"/>
                    </mxGeometry>
                </mxCell>
                <mxCell id="39" style="edgeStyle=orthogonalEdgeStyle;html=1;endArrow=ERzeroToMany;endFill=0;startArrow=ERmandOne;startFill=0;strokeWidth=0.8;exitX=0.5;exitY=1;exitDx=0;exitDy=0;" parent="1" source="27" target="28" edge="1">
                    <mxGeometry relative="1" as="geometry">
                        <mxPoint x="195" y="250" as="targetPoint"/>
                        <mxPoint x="300" y="210" as="sourcePoint"/>
                    </mxGeometry>
                </mxCell>
                <mxCell id="40" style="edgeStyle=orthogonalEdgeStyle;html=1;endArrow=ERmandOne;endFill=0;startArrow=ERmandOne;startFill=0;strokeWidth=0.8;entryX=0.5;entryY=0;entryDx=0;entryDy=0;exitX=0.25;exitY=1;exitDx=0;exitDy=0;" parent="1" source="27" target="30" edge="1">
                    <mxGeometry relative="1" as="geometry">
                        <mxPoint x="40" y="620" as="targetPoint"/>
                        <mxPoint x="145" y="580" as="sourcePoint"/>
                        <Array as="points">
                            <mxPoint x="238" y="665"/>
                            <mxPoint x="100" y="665"/>
                        </Array>
                    </mxGeometry>
                </mxCell>
                <mxCell id="41" style="edgeStyle=orthogonalEdgeStyle;html=1;endArrow=ERmandOne;endFill=0;startArrow=ERzeroToMany;startFill=0;strokeWidth=0.8;entryX=1;entryY=0.5;entryDx=0;entryDy=0;exitX=0;exitY=0.5;exitDx=0;exitDy=0;dashed=1;dashPattern=8 8;" parent="1" source="32" target="31" edge="1">
                    <mxGeometry relative="1" as="geometry">
                        <mxPoint x="615" y="630" as="targetPoint"/>
                        <mxPoint x="720" y="590" as="sourcePoint"/>
                    </mxGeometry>
                </mxCell>
                <mxCell id="42" value="&lt;span style=&quot;color: rgb(63, 63, 63); font-size: 10px;&quot;&gt;users_privileges&lt;/span&gt;" style="rounded=1;whiteSpace=wrap;html=1;fillColor=#d5e8d4;strokeColor=#82b366;" parent="1" vertex="1">
                    <mxGeometry x="20" y="120" width="100" height="40" as="geometry"/>
                </mxCell>
                <mxCell id="43" value="&lt;span style=&quot;color: rgb(63, 63, 63); font-size: 10px;&quot;&gt;medias_genres&lt;/span&gt;" style="rounded=1;whiteSpace=wrap;html=1;fillColor=#d5e8d4;strokeColor=#82b366;" parent="1" vertex="1">
                    <mxGeometry x="475" y="620" width="100" height="40" as="geometry"/>
                </mxCell>
                <mxCell id="44" value="&lt;span style=&quot;color: rgb(63, 63, 63); font-size: 10px;&quot;&gt;watch_lists_medias&lt;/span&gt;" style="rounded=1;whiteSpace=wrap;html=1;fillColor=#d5e8d4;strokeColor=#82b366;" parent="1" vertex="1">
                    <mxGeometry x="50" y="850" width="100" height="40" as="geometry"/>
                </mxCell>
                <mxCell id="46" value="&lt;span style=&quot;color: rgb(63, 63, 63); font-size: 10px;&quot;&gt;medias_persons_roles&lt;/span&gt;" style="rounded=1;whiteSpace=wrap;html=1;fillColor=#d5e8d4;strokeColor=#82b366;" parent="1" vertex="1">
                    <mxGeometry x="465" y="880" width="110" height="40" as="geometry"/>
                </mxCell>
                <mxCell id="47" style="edgeStyle=orthogonalEdgeStyle;html=1;endArrow=ERzeroToMany;endFill=0;startArrow=ERmandOne;startFill=0;strokeWidth=0.8;entryX=0.5;entryY=0;entryDx=0;entryDy=0;exitX=0.5;exitY=1;exitDx=0;exitDy=0;" parent="1" source="30" target="44" edge="1">
                    <mxGeometry relative="1" as="geometry">
                        <mxPoint x="65" y="840" as="targetPoint"/>
                        <mxPoint x="170" y="800" as="sourcePoint"/>
                    </mxGeometry>
                </mxCell>
                <mxCell id="49" style="edgeStyle=orthogonalEdgeStyle;html=1;endArrow=ERzeroToMany;endFill=0;startArrow=ERmandOne;startFill=0;strokeWidth=0.8;entryX=0.5;entryY=1;entryDx=0;entryDy=0;exitX=0;exitY=0.75;exitDx=0;exitDy=0;" parent="1" source="31" target="44" edge="1">
                    <mxGeometry relative="1" as="geometry">
                        <mxPoint x="165" y="1000" as="targetPoint"/>
                        <mxPoint x="215" y="960" as="sourcePoint"/>
                        <Array as="points">
                            <mxPoint x="355" y="740"/>
                            <mxPoint x="355" y="920"/>
                            <mxPoint x="100" y="920"/>
                        </Array>
                    </mxGeometry>
                </mxCell>
                <mxCell id="50" style="edgeStyle=orthogonalEdgeStyle;html=1;endArrow=ERzeroToMany;endFill=0;startArrow=ERmandOne;startFill=0;strokeWidth=0.8;entryX=0.5;entryY=1;entryDx=0;entryDy=0;exitX=0;exitY=0.25;exitDx=0;exitDy=0;" parent="1" source="31" target="28" edge="1">
                    <mxGeometry relative="1" as="geometry">
                        <mxPoint x="260" y="840" as="targetPoint"/>
                        <mxPoint x="400" y="920" as="sourcePoint"/>
                        <Array as="points">
                            <mxPoint x="335" y="720"/>
                            <mxPoint x="335" y="850"/>
                            <mxPoint x="260" y="850"/>
                        </Array>
                    </mxGeometry>
                </mxCell>
                <mxCell id="51" style="edgeStyle=orthogonalEdgeStyle;html=1;endArrow=ERmandOne;endFill=0;startArrow=ERoneToMany;startFill=0;strokeWidth=0.8;entryX=0.5;entryY=1;entryDx=0;entryDy=0;exitX=0.5;exitY=0;exitDx=0;exitDy=0;" parent="1" source="43" target="33" edge="1">
                    <mxGeometry relative="1" as="geometry">
                        <mxPoint x="305" y="970" as="targetPoint"/>
                        <mxPoint x="410" y="930" as="sourcePoint"/>
                    </mxGeometry>
                </mxCell>
                <mxCell id="52" style="edgeStyle=orthogonalEdgeStyle;html=1;endArrow=ERmandOne;endFill=0;startArrow=ERoneToMany;startFill=0;strokeWidth=0.8;entryX=0.5;entryY=0;entryDx=0;entryDy=0;exitX=0.5;exitY=1;exitDx=0;exitDy=0;" parent="1" source="46" target="35" edge="1">
                    <mxGeometry relative="1" as="geometry">
                        <mxPoint x="315" y="980" as="targetPoint"/>
                        <mxPoint x="420" y="940" as="sourcePoint"/>
                    </mxGeometry>
                </mxCell>
                <mxCell id="53" style="edgeStyle=orthogonalEdgeStyle;html=1;endArrow=ERmandOne;endFill=0;startArrow=ERoneToMany;startFill=0;strokeWidth=0.8;entryX=0.5;entryY=1;entryDx=0;entryDy=0;exitX=0;exitY=0.5;exitDx=0;exitDy=0;" parent="1" source="46" target="31" edge="1">
                    <mxGeometry relative="1" as="geometry">
                        <mxPoint x="445" y="850" as="targetPoint"/>
                        <mxPoint x="550" y="810" as="sourcePoint"/>
                    </mxGeometry>
                </mxCell>
                <mxCell id="54" style="edgeStyle=orthogonalEdgeStyle;html=1;endArrow=ERmandOne;endFill=0;startArrow=ERoneToMany;startFill=0;strokeWidth=0.8;entryX=0.5;entryY=0;entryDx=0;entryDy=0;exitX=0.5;exitY=1;exitDx=0;exitDy=0;" parent="1" source="43" target="31" edge="1">
                    <mxGeometry relative="1" as="geometry">
                        <mxPoint x="315" y="980" as="targetPoint"/>
                        <mxPoint x="420" y="940" as="sourcePoint"/>
                    </mxGeometry>
                </mxCell>
                <mxCell id="55" style="edgeStyle=orthogonalEdgeStyle;html=1;endArrow=ERmandOne;endFill=0;startArrow=ERoneToMany;startFill=0;strokeWidth=0.8;entryX=0.5;entryY=1;entryDx=0;entryDy=0;exitX=1;exitY=0.5;exitDx=0;exitDy=0;" parent="1" source="46" target="34" edge="1">
                    <mxGeometry relative="1" as="geometry">
                        <mxPoint x="325" y="990" as="targetPoint"/>
                        <mxPoint x="430" y="950" as="sourcePoint"/>
                    </mxGeometry>
                </mxCell>
                <mxCell id="56" value="" style="swimlane;startSize=0;" parent="1" vertex="1">
                    <mxGeometry x="10" y="30" width="530" height="180" as="geometry"/>
                </mxCell>
                <mxCell id="12" style="edgeStyle=orthogonalEdgeStyle;html=1;endArrow=ERmany;endFill=0;startArrow=ERmany;startFill=0;strokeWidth=0.8;entryX=0.5;entryY=0;entryDx=0;entryDy=0;" parent="56" edge="1">
                    <mxGeometry relative="1" as="geometry">
                        <mxPoint x="260" y="130" as="targetPoint"/>
                        <mxPoint x="365" y="90" as="sourcePoint"/>
                    </mxGeometry>
                </mxCell>
                <mxCell id="37" style="edgeStyle=orthogonalEdgeStyle;html=1;endArrow=ERone;endFill=0;startArrow=ERmany;startFill=0;strokeWidth=0.8;entryX=0.5;entryY=0;entryDx=0;entryDy=0;" parent="56" edge="1">
                    <mxGeometry relative="1" as="geometry">
                        <mxPoint x="402.5" y="130" as="targetPoint"/>
                        <mxPoint x="507.5" y="90" as="sourcePoint"/>
                    </mxGeometry>
                </mxCell>
                <mxCell id="57" value="Template" style="text;html=1;align=center;verticalAlign=middle;resizable=0;points=[];autosize=1;strokeColor=none;fillColor=none;" parent="56" vertex="1">
                    <mxGeometry x="10" y="8" width="70" height="30" as="geometry"/>
                </mxCell>
                <mxCell id="58" value="&lt;span style=&quot;color: rgb(0, 0, 0);&quot;&gt;&lt;font style=&quot;font-size: 10px;&quot;&gt;genres_subscriptions&lt;/font&gt;&lt;/span&gt;" style="rounded=1;whiteSpace=wrap;html=1;fillColor=#d5e8d4;strokeColor=#82b366;" vertex="1" parent="1">
                    <mxGeometry x="595" y="400" width="100" height="40" as="geometry"/>
                </mxCell>
                <mxCell id="59" style="edgeStyle=orthogonalEdgeStyle;html=1;endArrow=ERzeroToMany;endFill=0;startArrow=ERmandOne;startFill=0;strokeWidth=0.8;entryX=0.5;entryY=0;entryDx=0;entryDy=0;exitX=0.5;exitY=1;exitDx=0;exitDy=0;" edge="1" parent="1" source="10" target="58">
                    <mxGeometry relative="1" as="geometry">
                        <mxPoint x="515" y="430" as="targetPoint"/>
                        <mxPoint x="435" y="480" as="sourcePoint"/>
                    </mxGeometry>
                </mxCell>
                <mxCell id="60" style="edgeStyle=orthogonalEdgeStyle;html=1;endArrow=ERzeroToMany;endFill=0;startArrow=ERmandOne;startFill=0;strokeWidth=0.8;entryX=0.5;entryY=1;entryDx=0;entryDy=0;exitX=0.5;exitY=0;exitDx=0;exitDy=0;" edge="1" parent="1" source="33" target="58">
                    <mxGeometry relative="1" as="geometry">
                        <mxPoint x="515" y="430" as="targetPoint"/>
                        <mxPoint x="435" y="480" as="sourcePoint"/>
                    </mxGeometry>
                </mxCell>
            </root>
        </mxGraphModel>
    </diagram>
</mxfile>
